<svg width="9" height="13" viewBox="0 0 9 13" fill="none" xmlns="http://www.w3.org/2000/svg">
<path opacity="0.7" d="M7.91906 6.91406C8.07824 6.75781 8.19762 6.52344 8.19762 6.25C8.19762 6.01562 8.07824 5.78125 7.91906 5.58594L2.50704 0.273438C2.30807 0.117188 2.0693 0 1.83054 0C1.55198 0 1.31321 0.117188 1.15403 0.273438L0.27856 1.17188C0.0795886 1.36719 0 1.60156 0 1.83594C0 2.10938 0.0795886 2.34375 0.27856 2.5L4.09881 6.25L0.27856 10C0.0795886 10.1953 0 10.4297 0 10.6641C0 10.9375 0.0795886 11.1719 0.27856 11.3281L1.15403 12.2266C1.31321 12.4219 1.55198 12.5 1.83054 12.5C2.0693 12.5 2.30807 12.4219 2.50704 12.2266L7.91906 6.91406Z" fill="#999999"/>
</svg>
