<svg id="Layer_1" data-name="Layer 1" xmlns="http://www.w3.org/2000/svg" viewBox="0 0 200 200"><defs><style>.cls-1,.cls-3{fill:#fff;}.cls-2{fill:#97002e;}.cls-3{fill-rule:evenodd;}</style></defs><path class="cls-1" d="M683,222.28a100,100,0,1,0-100-100,100,100,0,0,0,100,100" transform="translate(-583 -22.27)"/><path class="cls-2" d="M778,122.28a95,95,0,1,1-95-95,95,95,0,0,1,95,95" transform="translate(-583 -22.27)"/><path class="cls-3" d="M643.54,104.55l-5.41-5.41a6,6,0,1,1,.05-8.41l5.41-5.41a13.64,13.64,0,1,0-.06,19.24" transform="translate(-583 -22.27)"/><path class="cls-3" d="M736.84,81.91h-9.51l-8.2,25.9h8.41l1.09-4.21h6.83l1.06,4.21h8.7ZM730,97.41,732,89.29H732L734,97.41Z" transform="translate(-583 -22.27)"/><polygon class="cls-3" points="115.19 66.49 120.6 66.49 120.6 85.53 128.48 85.53 128.48 66.49 133.9 66.49 133.9 59.63 115.19 59.63 115.19 66.49"/><path class="cls-3" d="M693,105.35c.7-2.84-.15-5.48-2.32-8.75-2.06-3.11-3-4.72-2.86-7.19.13-3.27,2.24-5.9,5.44-7.89H683.18a11.83,11.83,0,0,0-5.06,9.25,11,11,0,0,0,2.44,6.61c1.34,1.92,2.66,3.6,2.72,5.86.05,2.87-2.09,5.26-4.88,7.12l8.54,2.34c2.62-1.59,5.36-4.46,6.09-7.36" transform="translate(-583 -22.27)"/><path class="cls-3" d="M659.6,81.28a13.63,13.63,0,1,0,13.63,13.63A13.63,13.63,0,0,0,659.6,81.28m0,19.6a6,6,0,1,1,6-6,6,6,0,0,1-6,6" transform="translate(-583 -22.27)"/><path class="cls-3" d="M650.87,118.64a13.63,13.63,0,1,0,13.63,13.63,13.63,13.63,0,0,0-13.63-13.63m0,19.6a6,6,0,1,1,6-6,6,6,0,0,1-6,6" transform="translate(-583 -22.27)"/><path class="cls-3" d="M634.81,141.91l-5.41-5.41a6,6,0,1,1,.05-8.41l5.42-5.41a13.64,13.64,0,1,0-.06,19.24" transform="translate(-583 -22.27)"/><polygon class="cls-3" points="101.75 106.79 93.46 106.79 93.46 103.85 103.28 103.85 102.3 97.01 86.46 97.01 86.46 122.89 93.46 122.89 93.46 112.5 102.39 112.5 101.75 106.79"/><polygon class="cls-3" points="123.72 106.79 115.43 106.79 115.43 103.85 125.25 103.85 124.27 97.01 108.43 97.01 108.43 122.89 115.43 122.89 115.43 112.5 124.36 112.5 123.72 106.79"/><polygon class="cls-3" points="148.01 115.85 137.27 115.85 137.27 112.5 146.2 112.5 145.56 106.79 137.27 106.79 137.27 103.84 147.09 103.84 146.12 97.01 130.36 97.01 130.36 122.85 147.13 122.85 148.01 115.85"/><polygon class="cls-3" points="170.87 115.85 160.13 115.85 160.13 112.5 169.05 112.5 168.41 106.79 160.13 106.79 160.13 103.84 169.94 103.84 168.97 97.01 153.22 97.01 153.22 122.85 169.98 122.85 170.87 115.85"/></svg>