<?xml version="1.0" encoding="utf-8"?>
<!-- Generator: Adobe Illustrator 19.0.0, SVG Export Plug-In . SVG Version: 6.00 Build 0)  -->
<svg version="1.1" id="Layer_1" xmlns="http://www.w3.org/2000/svg" xmlns:xlink="http://www.w3.org/1999/xlink" x="0px" y="0px"
	 viewBox="0 0 500 500" style="enable-background:new 0 0 500 500;" xml:space="preserve">
<style type="text/css">
	.st0{fill:#FFFFFF;}
	.st1{fill:#F5821F;}
	.st2{fill:#E11383;}
	.st3{fill:#683817;}
</style>
<g id="XMLID_1_">
	<path class="st0" d="M280.2,217.1L280.2,217.1l0.1-0.1L280.2,217.1 M169.9,314L169.9,314l-0.1-0.1L169.9,314z M320.6,215.8
		L320.6,215.8l0.1,0.2L320.6,215.8z M409.7,261.6c2.2-2.9,2.6-5.5,2.6-9.5v-12.7c1.5,1.2,3.1,1.7,4.3,2c1.9,0.4,8.3,0.8,11.9-8.5
		c1-2.7,1.6-5.9,1.6-8.4c0-6.1-4.3-12.6-11.3-12.6c-3.8,0-6.8,2.2-8.8,5.2l-0.5-0.7l-0.1-0.1c-2.3-2.8-5.7-4.4-9.2-4.4
		c-4,0-7.8,2-9.9,5.3c-0.8,1.3-1.4,2.5-1.7,3.8c-1.9-2.3-3.5-4.3-3.5-4.3c-2.5-3.2-5.5-4.7-9.1-4.7c-5,0-9,2.6-11,6.5
		c-0.5-0.9-1-1.7-1.8-2.6c-2.3-2.6-5.5-4-9-4c-3.4,0-6.8,1.4-8.9,4c-0.7,0.7-1.1,1.4-1.6,2.1c-2.1-3.6-6.1-6.1-10.5-6.1
		c-4,0-7.6,2-10,5.5c0,0-0.3,0.4-0.7,1.1c-0.5-0.8-1-1.7-1.7-2.5c-2.3-2.6-5.6-4.1-9.1-4.1c-4.8,0-8.8,2.6-10.7,6.7
		c-0.4-0.8-0.8-1.5-1.4-2.3l-0.1-0.1c-2.3-2.8-5.7-4.4-9.2-4.4c-4,0-7.7,2-9.9,5.3c-0.8,1.3-1.4,2.5-1.7,3.8
		c-1.9-2.3-3.5-4.3-3.5-4.3c-2.6-3.2-5.6-4.7-9.1-4.7c-4.8,0-8.8,2.4-10.8,6.2c-0.4-0.6-0.8-1.2-1.3-1.8c-2.3-2.7-5.9-4.4-9.4-4.4
		c-3.6,0-7.1,1.7-9.4,4.6c-0.9,1.1-1.4,2.1-1.9,3.2c-0.5-1.3-1.3-2.7-2.5-4c-2.3-2.4-5.5-3.8-8.8-3.8c-3.5,0-7.2,1.8-9.4,4.7
		l-0.1,0.1c-1.9,2.5-2.3,4.6-2.5,7.8c-1.3-1.9-2.9-3.8-4.6-5.3c-5.2-4.6-11.4-6.8-19.2-6.8h-8.9c-6.2,0-10.8,2.9-12.5,8.1
		c-0.4,1.3-0.5,2.1-0.6,4h-0.2c-1.3-7.1-7.5-12.5-14.9-12.5h-41c-0.3-1.6-0.9-2.9-1.6-4.2c2.3,0.4,4.8,0.1,7.2-1.3l-1.5,0.4l1.9-0.7
		h0.1l0,0l0.1-0.1c3.3-2.5,5.2-6.3,5.2-10.4c0-1.1-0.1-2.1-0.4-3.1c-1.3-5.2-5.3-8.8-10.5-9.7c-2.5-0.4-7.7,0.1-11.9,3.2
		c-3.2,2.4-5.3,5.9-5.8,10.1c-0.1,0.7-0.2,1.3-0.2,1.9c0,1.5,0.3,2.9,0.7,4.1c-4.2-2-9.1-1.6-13.6,1.5h-0.1c-4.7,3.4-6.1,7.3-6.5,10
		c-0.2,2,0,4.1,0.8,6c-1.1,2.3-1.8,4.7-1.8,7.3v73.9c0,8.4,6.8,15.3,15.2,15.3h63.7c7.4,0,13.6-5.3,14.9-12.3h0.7v0.9
		c0.1,1,0.1,1.7,0.4,2.5c0.8,2.8,2.4,5,4.9,6.6c2.5,1.6,4.9,2,8.8,2h6.1c3.2,0,6.2-0.2,8.3-0.6h0.1c4.7-1,9.2-3.3,12.7-6.5l0.9-0.9
		l0.1-0.1c1.3-1.3,2.5-2.8,3.4-4.4c0.9,1.5,1.9,2.9,3.1,4.3c5.3,5.9,12.9,9.4,20.9,9.4c7.9,0,15.5-3.4,20.9-9.4l0.6-0.8
		c0.4,1.6,1,3.1,2,4.5l0.1,0.1c2.3,2.9,5.9,4.7,9.5,4.7c3.5,0,6.9-1.6,9.2-4.4l0.1-0.1c1.2-1.6,2-3.1,2.3-4.9l3.6,4.6
		c2.4,3.1,5.6,4.8,9.5,4.8c3.7,0,7.2-1.7,9.4-4.5c1-1.4,1.7-2.8,2.1-4.4l0,0l0.1,0.1c4.4,6,11.5,9.6,18.8,9.6c6.7,0,13-2.9,17.5-8.1
		l1.3-1.6c3.1-4.1,4.5-9,4.5-15.3v-7.4c1.1,0.4,2.4,0.6,3.8,0.6c0,5.9,0,17.5,0,17.5l0.1,2c0.1,2.6,0.8,4.4,2,6.3l0.1,0.2
		c2.3,3.1,5.9,4.9,9.8,4.9c4.2,0,7.8-2,10-5.5c1.1-1.8,1.7-3.6,1.9-5.8c0,0,0-0.8,0.1-1.4h1.3c0.1,1,0.5,1.9,0.9,2.9
		c2.9,6.4,10.8,10.6,20.2,10.6c6.7,0,11.8-1.9,15.7-5.8c1.3-1.4,2.4-2.9,3.3-4.5c1.5-2.9,2.3-6.1,2.3-9.3c0-5.3-2-10.2-5.5-13.4
		c1.7-1.5,3-3.5,3.5-5.9c1.3,1,2.9,1.6,4.6,1.6c3.5,0,6.5-2.5,7.1-6l0,0v-0.3l0.1-1c0-4.1-3.2-7.3-7.3-7.3c-2.8,0-5.2,1.6-6.5,3.8
		c-1.3-2-3.4-3.8-5.8-5C408.3,263.3,409,262.5,409.7,261.6z M419.7,275.8L419.7,275.8L419.7,275.8L419.7,275.8z M390.3,217.1
		L390.3,217.1L390.3,217.1L390.3,217.1z M345.1,215.9L345.1,215.9L345.1,215.9L345.1,215.9z"/>
	<path class="st1" d="M244.4,216.6c-2.2,0-4.3,1-5.6,2.8c-1.3,1.6-1.6,2.6-1.6,5.9v17.6c0,3.1-1.4,4.9-4,4.9c-2.5,0-4-2-4-5.1v-17.4
		c0-3.2-0.5-4.8-1.9-6.3c-1.4-1.4-3.4-2.3-5.4-2.3c-2.1,0-4.3,1.1-5.8,2.8c-1.3,1.7-1.5,2.7-1.5,6.9v15.5c0,5.9,0.8,8.9,3.6,12.7
		c3.5,4.8,9.2,7.6,15,7.6c5.3,0,10.4-2.4,14-6.4c3.1-3.6,4.6-7.9,4.6-13.9v-15.7c0-4-0.3-5.3-1.7-7
		C248.8,217.7,246.6,216.6,244.4,216.6 M208,231.2c-1.2-3.3-3.2-6.2-5.9-8.6c-4.3-3.8-9.4-5.6-16-5.6h-8.9c-4.2,0-7,1.7-8,4.8
		c-0.3,1-0.3,1.4-0.3,5.1v24.3c0,3.1,0,3.8,0.2,4.8c0.4,1.7,1.4,2.9,3.1,4c1.4,0.9,2.7,1.2,6.2,1.2h6.1c3.1,0,5.7-0.2,7.5-0.5
		c3.8-0.8,7.6-2.7,10.4-5.3c4.5-4.2,7.1-10.1,7.1-16.2C209.4,236.3,208.9,233.6,208,231.2z M189.5,231.2l0.7,0.3
		c2.9,1.4,4.7,4.4,4.7,7.7c0,2.7-1.4,5.4-3.6,7c-1.7,1.2-2.9,1.4-7.9,1.4v-17.1h1.2C186.9,230.5,188.3,230.7,189.5,231.2
		L189.5,231.2z M290.1,216.6c-2.4,0-4.7,1.3-5.9,3.1c-1.1,1.5-1.4,2.9-1.4,5.8v8.2l-2.1-2.6l-9.5-11.6c-1.6-2-3.3-2.9-5.4-2.9
		c-4.6,0.1-7.6,3.2-7.6,7.9v28c0,3.2,0.3,4.6,1.5,6.2c1.4,1.8,3.6,2.9,5.9,2.9c2.2,0,4.3-1,5.6-2.6c1.3-1.6,1.6-2.9,1.6-5.8v-9.3
		l11.5,14.8c1.5,2,3.5,3,5.8,3c2.3,0,4.3-1,5.7-2.7c1.3-1.6,1.6-3.1,1.6-6.6v-27c0-2.7-0.5-4.3-1.7-5.8
		C294.3,217.6,292.3,216.6,290.1,216.6z M331.9,238.5l5.1-7.4l2.3-3.4c0.8-1.1,1.1-2.5,1.1-3.8c0-3.9-3.4-7.3-7.4-7.3
		c-2.5,0-4.6,1.2-6,3.4l-7.6,11.2l-0.5,0.8v-7c0-2.6-0.5-4.3-2-5.8c-1.3-1.5-3.4-2.5-5.5-2.5c-4.4,0-7.3,3.3-7.3,8.2v28.4
		c0,5.1,2.9,8.3,7.4,8.3c4.4,0,7.3-3.3,7.3-8.4v-7.7l11,13.9c1,1.3,3.1,2.2,5.1,2.2c4,0,7.3-3.4,7.3-7.4c0-1.5-0.5-2.8-1.4-4
		L331.9,238.5z M400.1,216.6c-2.4,0-4.7,1.3-5.9,3.1c-1.1,1.5-1.4,2.9-1.4,5.8v8.2l-2.1-2.6l-9.4-11.6c-1.7-2-3.3-2.9-5.4-2.9
		c-4.6,0-7.6,3.1-7.6,7.8v28c0,3.2,0.3,4.6,1.5,6.2c1.4,1.8,3.6,2.8,5.9,2.8c2.2,0,4.3-1,5.6-2.6c1.3-1.6,1.6-2.9,1.6-5.8v-9.2
		l11.6,14.8c1.5,2,3.4,3,5.8,3c2.3,0,4.4-1,5.7-2.7c1.3-1.6,1.6-3.1,1.6-6.6v-27c0-2.7-0.5-4.3-1.7-5.8
		C404.4,217.6,402.4,216.6,400.1,216.6z M418.8,216.6c-3.8,0-6.5,4.6-6.5,8.5c0,1.7,0,4,0.4,6.1c0.5,2.6,1.8,5,4.7,5.5
		c3.1,0.6,5.2-2.3,6.5-5.5l0,0c0.9-2.4,1.4-5.1,1.4-6.8C425.3,220.6,422.6,216.6,418.8,216.6z M354.1,216.6c-2.1,0-4.1,0.9-5.4,2.4
		c-1.5,1.6-1.9,3-1.9,6.7v27.4c0,3.1,0.4,4.6,1.9,6.1c1.3,1.4,3.4,2.3,5.4,2.3c1.9,0,4-0.9,5.4-2.5c1.4-1.4,1.9-3.1,1.9-5.9v-27.4
		c0-3.6-0.5-5.1-2-6.8C358.1,217.4,356.2,216.6,354.1,216.6z"/>
	<path id="XMLID_25_" class="st2" d="M340.9,273.4c-0.1-1.9-0.6-2.8-1.6-4c-1.3-1.6-3.5-2.6-5.6-2.6c-2.2,0-4.2,1-5.6,2.8
		c-1,1.2-1.4,2-1.5,3.9c0,0.5-0.1,1.1-0.1,1.9v17.6c0,3.1-1.5,5-4.1,5s-4.1-2-4.1-5.3v-17.5c0-0.7,0-1.4-0.1-1.9
		c-0.2-2-0.8-3.1-1.9-4.4c-1.3-1.4-3.3-2.3-5.3-2.3c-2.1,0-4.3,1.1-5.7,2.8c-0.9,1.1-1.3,2-1.4,3.8c-0.1,0.8-0.1,1.7-0.1,3v15.6
		c0,5.8,0.8,8.8,3.4,12.4l0.1,0.1c3.5,4.7,9.1,7.7,14.9,7.7c5.2,0,10.4-2.4,14-6.5c0.4-0.5,0.8-0.9,1-1.3c2.4-3.3,3.5-7.3,3.5-12.5
		v-15.8C341,275.1,341,274.2,340.9,273.4"/>
	<path class="st2" d="M420.5,272.6c1.1,0,2-0.5,2-1.7c0-0.5-0.2-1.1-0.8-1.4c-0.5-0.3-1-0.3-1.6-0.3h-2.8v6.4h0.8v-2.9h1.4l0.4,0.8
		l1.4,2.2h0.9l-1.4-2.2L420.5,272.6 M419.4,272h-1.2v-2.3h1.8c0.8,0,1.6,0.1,1.6,1.1C421.7,272.2,420.3,272,419.4,272z"/>
	<path id="XMLID_22_" class="st2" d="M425.2,273.4c0.1-0.3,0.1-0.7,0.1-1c0-3.2-2.5-5.7-5.7-5.7c-3.2,0-5.8,2.5-5.8,5.7
		c0,0.4,0,0.7,0.1,1c0.5,2.7,2.9,4.7,5.6,4.7C422.4,278.1,424.7,276.1,425.2,273.4h-0.7c-0.4,2.3-2.5,4.1-4.9,4.1
		c-2.5,0-4.5-1.7-5-4.1c-0.1-0.3-0.1-0.7-0.1-1c0-2.8,2.3-5,5-5c2.8,0,5,2.3,5,5c0,0.4,0,0.7-0.1,1H425.2"/>
	<path class="st2" d="M203.4,304.5c4-4.1,6.3-9.7,6.3-15.4c0-2.7-0.5-5.4-1.4-7.9l0,0c-1.1-2.9-2.9-5.6-5.1-7.8l0,0l-0.8-0.7
		c-4.3-3.8-9.4-5.6-16-5.6h-9c-4.2,0-6.9,1.6-7.9,4.7c-0.1,0.5-0.2,0.8-0.3,1.5l0,0c-0.1,0.7-0.1,1.7-0.1,3.5v24.4
		c0,1.6,0,2.5,0,3.1c0,0.7,0.1,1.1,0.2,1.6c0.4,1.7,1.4,2.9,3,3.9c1.3,0.9,2.6,1.2,6.1,1.2h6.2c3.1,0,5.7-0.2,7.5-0.5
		c3.8-0.8,7.5-2.7,10.3-5.3L203.4,304.5L203.4,304.5 M183.6,281.2v-0.7h1.3c2.4,0,3.9,0.2,5.2,0.7l0,0l0.5,0.2
		c2.9,1.4,4.8,4.4,4.8,7.7c0,2.8-1.4,5.6-3.6,7.1c-1.7,1.2-3,1.4-8,1.5h-0.1L183.6,281.2L183.6,281.2z"/>
	<path class="st2" d="M256.1,281.2c-1.1-2.9-2.7-5.6-4.8-7.8c-4.3-4.5-10.3-7.3-17-7.3s-12.8,2.8-17.1,7.3l0,0
		c-2.1,2.3-3.7,4.9-4.7,7.7l0,0c-0.9,2.4-1.4,5-1.4,7.7c0,6,2.2,11.5,5.9,15.6l0,0c4.2,4.8,10.4,7.8,17.4,7.8c6.8,0,13.1-3,17.3-7.8
		c3.7-4.1,5.9-9.5,5.9-15.4C257.5,286.3,257,283.7,256.1,281.2 M234.3,298.1c-4.9,0-8.8-4.1-8.8-8.9c0-3.5,2.2-6.6,5.3-7.9
		c1.1-0.5,2.3-0.7,3.5-0.7c1.3,0,2.4,0.2,3.5,0.7c3.1,1.4,5.3,4.4,5.3,7.9C243.2,294,239.2,298.1,234.3,298.1z"/>
	<path id="XMLID_17_" class="st2" d="M299.1,273.4c-0.1-1.6-0.7-2.8-1.6-4c-1.4-1.6-3.3-2.6-5.5-2.6c-2.3,0-4.6,1.3-5.9,3.1
		c-0.8,1.1-1,2-1.2,3.5l0,0c-0.1,0.6-0.1,1.4-0.1,2.2v8.6l-2.5-3.1l-6.3-7.8l-3.1-3.8c-1.6-2-3.2-2.9-5.3-2.9
		c-4.1,0-7.1,2.6-7.4,6.6c0,0.4-0.1,0.8-0.1,1v28c0,0.8,0,1.4,0.1,2c0.1,1.9,0.5,2.9,1.4,4.2c1.3,1.7,3.5,2.8,5.8,2.8
		c2.2,0,4.2-1,5.5-2.6c1.1-1.3,1.5-2.4,1.6-4.4c0-0.4,0-0.9,0-1.4v-9.7l8.6,11l3.1,4c1.5,2,3.4,2.9,5.7,2.9c2.3,0,4.3-1,5.6-2.7
		c0.9-1.2,1.3-2.3,1.5-4.3c0.1-0.7,0.1-1.4,0.1-2.3V275C299.2,274.5,299.2,273.9,299.1,273.4"/>
	<path id="XMLID_16_" class="st2" d="M379.9,273.4c-0.1-3.2-2.5-5.7-5.9-6.1c-0.4-0.1-0.7-0.1-1.3-0.1c-0.6,0-1.6,0-3.7,0h-14.7
		c-5.8,0-6.4,0.1-7.9,0.8c-1.9,0.8-3.5,3.2-3.7,5.5l0,0v0.4c0,1.7,0.8,3.4,2,4.7c1.3,1.3,2.9,1.9,5.4,1.9h4.1v22.3
		c0,0.7,0,1.2,0.1,1.7c0.1,1.8,0.5,2.8,1.2,4c1.4,1.9,3.5,3,5.9,3c2.5,0,4.6-1.2,5.9-3.2c0.7-1.1,1-2.2,1.2-3.8
		c0.1-0.5,0.1-1.1,0.1-1.9v-22.2h3.4c2.6,0,4.4-0.5,5.5-1.6c1.4-1.3,2.3-3.2,2.3-5.2L379.9,273.4"/>
	<path id="XMLID_15_" class="st2" d="M407.8,287c-2-1.7-5.6-3.5-9.4-4.7c-1.5-0.4-2.5-0.9-3.2-1.3l0,0c-0.9-0.5-1.3-1-1.3-1.9
		c0-1,0.8-1.9,1.9-1.9c0.8,0,1.6,0.4,3.2,1.6c1.5,1.1,2.6,1.8,3.8,2.2l0,0c0.8,0.2,1.4,0.4,2.3,0.4c0.8,0,1.4-0.1,2-0.4l0,0
		c2.2-0.8,3.5-2.9,3.5-5.6c0-0.8-0.1-1.5-0.4-2.2c-1.4-4.3-6.9-7.4-13.7-7.4c-6.6,0-11.8,2.8-14.3,7.4l0,0c-1.1,2-1.8,4.4-1.8,7v0.8
		l0,0c0.2,5.7,3.4,9.6,9.5,11.8c1.2,0.4,2.4,0.8,3.6,1.3c2.3,0.8,2.6,1,2.9,1.3c0.8,0.5,1.2,1.1,1.2,2c0,1.2-0.8,2-1.9,2
		c-1.1,0-1.6-0.3-4.7-2.8c-1.9-1.5-3.4-2.1-5.1-2.1c-3.7,0-6.5,2.9-6.5,6.5c0,1.2,0.2,2.3,0.8,3.3l0,0c2,4.5,8.2,7.8,15.8,7.8
		c5.4,0,9.4-1.5,12.3-4.4c1-1,1.8-2.1,2.4-3.4c1.1-2.2,1.7-4.6,1.7-7.1C412.2,293.3,410.5,289.3,407.8,287"/>
	<path id="XMLID_14_" class="st1" d="M82.8,227.4c-3.1-0.1-5.9-1.3-8-3.3c-0.2,0.8-0.4,1.8-0.4,2.7v8.7
		C75.6,233,78.3,230.3,82.8,227.4"/>
	<path id="XMLID_13_" class="st1" d="M90.6,269c-3.5-0.5-5.9-2-6.8-4.3L74.8,242l-0.4-0.8V301c0,5.9,4.8,10.7,10.7,10.7h28.1
		c-1-1-1.8-2.1-2.5-3.5C110.8,308.3,93.6,274.9,90.6,269"/>
	<path id="XMLID_12_" class="st2" d="M149.1,216.1h-15.9l0.1,0.1c0.3,0.4,0.5,0.8,0.7,1.3c0.2,0.3,0.2,0.7,0.3,1.1
		c7.7,19.5,8.8,22.3,8.9,22.6l0,0v0.1v-0.1c0.3,0.7,0.4,1.4,0.4,2.2c0,1.8-0.8,3.7-2.4,5.6c1.9,6,5.5,17.9,11.8,41.3l0.4,1.3v-0.1
		c2.5,8-1.2,15.5-9.7,20.5h5.5c5.9,0,10.7-4.8,10.7-10.7v-74.3C159.8,220.9,155,216.1,149.1,216.1"/>
	<path id="XMLID_11_" class="st3" d="M116,217.1L116,217.1c-4.6,1-10,2.6-14.9,4.6c-5,1.9-10.1,4.4-14,6.9c-7,4.1-10.6,7.9-9.9,10.4
		v0.2c0,0.3,0.1,0.5,0.2,0.8l0.3,0.5l0.2,0.3l9,22.8c0.5,1.4,2.3,2.2,5.1,2.4c0.5,0.1,0.9,0.3,1.1,0.8l20.8,40.2
		c4,7.9,15.4,7.6,24.2,4c10-4,14.6-10.9,12.2-18.6l-0.4-1.3c-6.7-24.7-10.3-36.5-12.1-42.1c-0.2-0.5-0.1-1,0.3-1.4
		c2-2.1,2.6-3.8,2.1-5.3l-9-22.8l-0.1-0.3l-0.2-0.6l-0.4-0.7l-0.1-0.1C129.1,215.5,123.9,215.3,116,217.1"/>
	<path id="XMLID_10_" class="st3" d="M98.3,188.8c-2.6,1.9-4.1,4.7-4.7,8c-0.7,4.6,1.9,7.6,4.3,10.3c2.5,2.9,4.7,5.5,3.3,9.9
		c-0.1,0.4-0.1,0.8,0.2,1.2s0.5,0.7,1,0.8c0.8,0.3,1.7-0.2,2-1.1c1.9-6.1-1.3-9.9-4-12.9c-2.5-2.9-4-4.8-3.5-7.8
		c0.4-2.5,1.5-4.4,3.4-5.8c2.7-2,6.2-2.3,7.1-2.1c3.8,0.6,5,3.5,5.3,4.7c0.2,0.8,0.2,1.7,0.2,2.5c-0.2,1.7-1.1,3.2-2.4,4.3h-0.1
		c-1.6,0.8-2.9,0.8-3.8,0c-0.8-0.8-0.9-1.9-0.6-2.6c0.3-0.6,1.1-0.8,2.3-0.7c0.4,0.1,0.8,0,1.2-0.3c0.4-0.2,0.6-0.6,0.7-1.1
		c0.2-0.9-0.4-1.7-1.3-1.9c-2.6-0.4-4.7,0.4-5.7,2.3c-1,2-0.5,4.7,1.2,6.4c1.9,1.9,4.8,2,7.7,0.4l0.2-0.1c3.2-2.3,4.5-6.4,3.6-10.2
		c-0.9-3.8-3.9-6.4-7.9-7.1C106.2,185.9,101.8,186.2,98.3,188.8"/>
	<path id="XMLID_9_" class="st3" d="M79.3,206.3c-3.3,2.3-4.8,5.1-5.1,7.8c-0.3,2.3,0.3,4.5,1.5,6.2c2.5,3.6,7.6,5.4,12.8,2l0.1-0.1
		c2.7-2,2.6-6.1,0.8-8.6c-1.7-2.4-4.5-2.8-7.1-1.1c-0.8,0.5-0.9,1.5-0.4,2.3c0.2,0.4,0.6,0.6,1,0.7c0.5,0.1,0.8,0,1.2-0.2
		c1.5-1,2.3-0.4,2.7,0.2c0.5,0.7,0.8,1.7,0.6,2.6c-0.1,0.7-0.3,1.1-0.8,1.4c-3.5,2.3-6.7,1.1-8.3-1.2c-1.7-2.6-1.6-6.5,2.8-9.5
		c4.3-2.9,7.4-1.1,8.8,0.2c2.8,2.6,3.9,7,2.3,9.7c-0.5,0.8-0.2,1.8,0.6,2.2c0.4,0.2,0.8,0.3,1.2,0.2c0.5-0.2,0.8-0.4,1-0.8
		c2.3-4.1,1-10.1-3-13.7C88.6,203.5,83.7,203.3,79.3,206.3"/>
	<path id="XMLID_8_" class="st0" d="M124.7,223.4c-5.3,0.6-13.1,2.7-20.6,5.6c-7.5,3-14.7,7-18.9,10.3c-2.9,0.2-4.7,0-5.4-0.4
		c0.5-1.8,7.7-8.4,22.5-14.3s24.4-6.2,25.9-5.2C128.1,220.1,127,221.6,124.7,223.4"/>
	<path id="XMLID_7_" class="st0" d="M147.2,293c1.9,6.5-2.9,11.8-10.4,14.8c-7.8,3.1-17.3,3.3-20.3-2.5c-1-2-14-26-20.4-39.4
		c6.5-0.7,14.5-3,20.3-5.3c5.8-2.3,13.2-6.1,18.4-10C139.4,264.6,146.5,290.8,147.2,293"/>
	<path id="XMLID_6_" class="st0" d="M115.3,257.4c-13.7,5.4-24.1,5.8-25.7,4.5l-7.6-18.8c7.1,0.5,18-2.8,25.2-5.7
		c7.2-2.9,17.5-7.9,22.3-13.1l7.6,18.8C136.8,245.1,129,251.9,115.3,257.4"/>
	<path class="st1" d="M120.8,272.2c-0.8-0.8-1.7-1.4-2.7-1.8c-1.7-0.7-3.5-0.6-5.5-0.1c-0.9,0.2-1.9,0.5-2.8,0.7
		c-1.3,0.3-1.9,1-1.9,1.9c0,0.3,0.1,0.5,0.5,1.4c1,2.3,2,4.6,3.1,6.8c0.4,0.8,0.5,1.1,0.7,1.4c0.4,0.5,0.8,0.8,1.4,0.9
		c0.5,0.1,1,0.1,2-0.1c0.6-0.2,1.2-0.3,1.8-0.5c0.9-0.2,1.7-0.5,2.1-0.8c1-0.5,1.9-1.4,2.4-2.5c0.8-1.6,0.9-3.7,0.2-5.4
		C121.8,273.5,121.3,272.8,120.8,272.2 M117.6,278.1c-0.4,0.5-0.7,0.7-2.2,1.1c-0.7-1.6-1.3-3.2-2-4.8l0.4-0.1
		c0.7-0.2,1.1-0.2,1.6-0.2h0.2c1,0.1,1.9,0.8,2.3,1.7C118.2,276.6,118,277.5,117.6,278.1z"/>
	<path class="st2" d="M133,266.1c-0.7-0.8-1.5-1.3-2.4-1.6c-1.6-0.5-3.2-0.2-5.1,0.8c-0.9,0.5-1.7,0.8-2.6,1.2
		c-1.2,0.5-1.9,1.4-1.8,2.4c0,0.3,0.1,0.5,0.5,1.5c0.9,2.3,1.8,4.6,2.7,7c0.3,0.9,0.4,1,0.6,1.4c0.3,0.4,0.8,0.7,1.3,0.8
		c0.5,0.1,0.9,0,1.9-0.4c0.6-0.2,1.1-0.5,1.7-0.8c0.8-0.4,1.5-0.8,1.9-1.2c1-0.8,1.7-1.9,2.3-3.1c0.8-1.9,0.9-4.1,0.3-5.9
		C133.8,267.4,133.4,266.7,133,266.1 M129.9,273.1c-0.4,0.6-0.7,0.8-2,1.5c-0.6-1.6-1.2-3.3-1.8-5l0.4-0.1c0.7-0.3,1.1-0.4,1.4-0.5
		h0.2c1,0,1.7,0.6,2.1,1.5C130.4,271.3,130.4,272.3,129.9,273.1z"/>
</g>
</svg>
