<svg id="Lager_1" data-name="Lager 1" xmlns="http://www.w3.org/2000/svg" viewBox="0 0 493.04 166.86"><defs><style>.cls-1{fill:#3b2f7b;}</style></defs><title>waynescoffee</title><path class="cls-1" d="M50,184.3H72.9l7.25,32.38a126.91,126.91,0,0,1,3.24,19.43,195.47,195.47,0,0,1,3.69-19.55l7.68-32.26h19.86l8.08,32.26A125.14,125.14,0,0,1,126.16,236c1.06-8.18,1.49-10.49,3.17-18.82l7.35-32.87h22.8L141,258.5H115.87l-6.73-26.9c-2.41-10.22-2.94-12.85-4.62-23a167.34,167.34,0,0,1-3.66,20.83L93.7,258.5H68.48Z" transform="translate(-49.98 -181.89)"/><path class="cls-1" d="M179.16,184.3h26.71l27.73,74.2H208.38l-3.25-10.33H179.26L176,258.5H150.8Zm13.25,21.12-8.09,26.18h16Z" transform="translate(-49.98 -181.89)"/><path class="cls-1" d="M245.7,184.3,260.2,209l14.29-24.68h27.22l-30,43v31.2H248.31V227.3l-29.74-43Z" transform="translate(-49.98 -181.89)"/><path class="cls-1" d="M307.61,184.3H332.5l16.71,28c4.11,7.68,5.26,9.88,9.05,18.19-.63-7.25-.75-8.81-.95-17.14V184.3h22v74.2H354l-15-25.65a197.14,197.14,0,0,1-10.3-19.55c.52,6.73.63,8.43.75,15.13V258.5H307.61Z" transform="translate(-49.98 -181.89)"/><path class="cls-1" d="M462.14,182.38H481L466.34,201H453.76Z" transform="translate(-49.98 -181.89)"/><path class="cls-1" d="M389.28,184.3H448v16.32H412.83v11h32.88v16.11H412.83v14.68H451.2v16.11H389.28Z" transform="translate(-49.98 -181.89)"/><path class="cls-1" d="M488.18,232.87c2.11,3.26,3.87,6,10.29,8.09a33.73,33.73,0,0,0,10.4,1.66c1.91,0,11.12-.21,11.12-5.53,0-.55,0-3.29-4.07-4.62-2.63-1-16.29-3.39-19.35-4.1-6.83-1.82-20.16-6-20.16-21.7a23.16,23.16,0,0,1,2.09-9.54c4.84-10.9,17.34-15.24,30.69-15.24,8.51,0,16.3,1.68,22.39,4.74A34.88,34.88,0,0,1,542.5,195l-14.71,12.28a14.82,14.82,0,0,0-5.67-4.82c-4.31-2.13-10-2.74-13.8-2.74-4,0-8.39,1.06-8.39,4.83,0,3.58,3.79,4.51,10.22,5.67,16.51,2.84,32.87,5.79,32.87,24.19a23.34,23.34,0,0,1-6.63,16.68c-9.33,9.6-24.28,9.6-28.37,9.6a62.1,62.1,0,0,1-17.21-2.21c-11.79-3.38-17.26-10-20.6-14.1Z" transform="translate(-49.98 -181.89)"/><path class="cls-1" d="M158.68,327.23c-1.9,3.55-3.67,6.95-7.26,10.52-7.55,7.46-18.16,10.94-28.8,10.94-26.47,0-38.46-20-38.46-39,0-20,13.36-40.25,38.46-40.25,11.27,0,22,4,29.75,12a33.72,33.72,0,0,1,6.19,8.73l-19.63,9.77c-1.88-4.4-5.47-12.3-15.36-12.3a13.84,13.84,0,0,0-10,4C108,297,108,305.39,108,308.31c0,11.08,4.11,21.46,15.64,21.46,10.94,0,14.21-9.65,15-12.18Z" transform="translate(-49.98 -181.89)"/><path class="cls-1" d="M239.9,308.53c0,18.82-11,40.22-40.15,40.22-30.36,0-39.48-22.45-39.48-39.37,0-21.23,13.11-39.94,39.9-39.94C229.5,269.44,239.9,290.88,239.9,308.53Zm-56.12.73c0,12.95,5.24,20.71,16.39,20.71,9.47,0,16.09-7.46,16.09-21.44a29.21,29.21,0,0,0-1.36-9.77,15,15,0,0,0-14.73-10.61C191.77,288.15,183.78,293.92,183.78,309.26Z" transform="translate(-49.98 -181.89)"/><path class="cls-1" d="M306.18,272.16v16.4h-35.3V301.9h33v16h-33V346.4H247.45V272.16Z" transform="translate(-49.98 -181.89)"/><path class="cls-1" d="M372.75,272.16v16.4H337.46V301.9h33v16h-33V346.4H314V272.16Z" transform="translate(-49.98 -181.89)"/><path class="cls-1" d="M380.61,272.16h58.74v16.31H404.14v11h32.92v16.11H404.14v14.71h37V346.4H380.61Z" transform="translate(-49.98 -181.89)"/><path class="cls-1" d="M447,272.16h58.7v16.31H470.5v11h32.88v16.11H470.5v14.71h38.35V346.4H447Z" transform="translate(-49.98 -181.89)"/><path class="cls-1" d="M522.91,299.7a13.58,13.58,0,1,1,13.67-13.52A13.48,13.48,0,0,1,522.91,299.7Zm.1-25.92a12.34,12.34,0,1,0,12.35,12.38A12.32,12.32,0,0,0,523,273.78Zm-.3,3.79a10.92,10.92,0,0,1,4,.39,4,4,0,0,1,2.59,3.87c0,2.37-1.72,3.72-3.83,4.07,1.85.68,2.42,1.68,2.76,3.73a14,14,0,0,0,1.24,4.92H526.6a10.54,10.54,0,0,1-.67-2.35c-.08-.37-.35-2.27-.44-2.7-.47-2.51-1.85-2.81-4.3-2.85H520v7.9H517.5v-17Zm-2.7,7.09h2.86c1,0,3.89,0,3.89-2.68a2.4,2.4,0,0,0-.79-1.85c-.75-.65-1.56-.65-3.65-.65H520Z" transform="translate(-49.98 -181.89)"/></svg>