<svg width="50" height="50" viewBox="0 0 50 50" fill="none" xmlns="http://www.w3.org/2000/svg">
<path d="M34.875 28.1719C34.875 27.9844 34.7812 27.8438 34.6875 27.7031L25.875 20.4844C25.7344 20.3906 25.5938 20.3438 25.5 20.3438C25.3594 20.3438 25.2188 20.3906 25.125 20.4844L16.3125 27.7031C16.1719 27.8438 16.125 27.9844 16.125 28.1719V34.875C16.125 35.2031 16.2188 35.4844 16.4531 35.6719C16.6406 35.9062 16.9219 36 17.25 36H22.6875C22.8281 36 22.9688 35.9531 23.0625 35.8594C23.1562 35.7656 23.25 35.625 23.25 35.4375V30.1875C23.25 30.0469 23.2969 29.9062 23.3906 29.8125C23.4844 29.7188 23.625 29.625 23.8125 29.625H27.1875C27.3281 29.625 27.4688 29.7188 27.5625 29.8125C27.6562 29.9062 27.75 30.0469 27.75 30.1875V35.4375C27.75 35.625 27.7969 35.7656 27.8906 35.8594C27.9844 35.9531 28.125 36 28.3125 36H33.75C34.0312 36 34.3125 35.9062 34.5469 35.6719C34.7344 35.4844 34.875 35.2031 34.875 34.875V28.1719ZM38.8125 25.3125C38.9062 25.4062 38.9531 25.5469 38.9531 25.6875C38.9531 25.875 38.9531 26.0156 38.8594 26.1094L37.6875 27.5625C37.5938 27.7031 37.4531 27.75 37.3125 27.75C37.125 27.75 36.9844 27.7031 36.8906 27.6094L25.875 18.5625C25.7344 18.4688 25.5938 18.4219 25.5 18.4219C25.3594 18.4219 25.2188 18.4688 25.125 18.5625L14.1094 27.6094C13.9688 27.7031 13.8281 27.75 13.6875 27.75C13.5 27.75 13.4062 27.7031 13.3125 27.5625L12.1406 26.1094C12.0469 26.0156 12 25.875 12 25.6875C12 25.5469 12.0938 25.4062 12.1875 25.3125L24.0938 15.5156C24.4688 15.1875 24.9375 15 25.5 15C26.0156 15 26.4844 15.1875 26.9531 15.5156L31.125 18.9844V15.5625C31.125 15.4219 31.1719 15.2812 31.2656 15.1875C31.3594 15.0938 31.5 15 31.6875 15H34.3125C34.4531 15 34.5938 15.0938 34.6875 15.1875C34.7812 15.2812 34.875 15.4219 34.875 15.5625V22.0781L38.8125 25.3125Z" fill="#DFDEDE"/>
</svg>
